PathFileType	4	(X/Y/Z)	C:/Users/beibeiliu/ov580/test_trc/capture2\sequence.37_training_dense_right.trc
DataRate	CameraRate	NumFrames	NumMarkers	Units	OrigDataRate	OrigDataStartFrame	OrigNumFrames
120	120	20	19	mm	120	93	370
Frame#	Time	ThumbCMC			ThumbMCP			ThumbIP			ThumbTip			IndexMCP			IndexPIP			IndexTip			MiddleMCP			MiddlePIP			MiddleTip			RingMCP			RingPIP			RingTip			PinkyMCP			PinkyPIP			PinkyTip			BackHand1			BackHand2			BackHand3	
		X0	Y0	Z0	X1	Y1	Z1	X2	Y2	Z2	X3	Y3	Z3	X4	Y4	Z4	X5	Y5	Z5	X6	Y6	Z6	X7	Y7	Z7	X8	Y8	Z8	X9	Y9	Z9	X10	Y10	Z10	X11	Y11	Z11	X12	Y12	Z12	X13	Y13	Z13	X14	Y14	Z14	X15	Y15	Z15	X16	Y16	Z16	X17	Y17	Z17	X18	Y18	Z18	
92	0.766667	160.206	47.7488	26.4821	147.594	58.2936	3.55856	142.607	65.2584	-22.2307	133.641	48.4103	-41.6274	163.35	23.454	-42.7688	137.518	27.6457	-62.4287	111.65	36.8946	-45.7816	156.952	3.35871	-44.768	130.012	12.7077	-62.9701	102.145	21.9534	-46.0926	148.475	-11.5624	-39.3089	123.672	-7.85949	-55.4402	99.1885	14.3907	-35.7154	138.258	-28.1782	-26.8828	119.752	-19.7247	-43.0382	98.9906	5.69059	-34.4405	166.659	-14.971	13.7032	167.267	-12.4478	46.2455	177.536	17.029	24.8803	
93	0.775	160.37	46.5023	27.4966	147.543	61.1406	3.97391	143.758	62.129	-25.9188	134.328	50.8684	-46.3506	163.513	21.9713	-41.8082	140.515	27.1753	-62.742	110.889	35.5113	-44.8911	158.345	4.61174	-43.2151	126.833	8.8536	-62.149	102.503	25.5249	-43.4301	147.243	-13.0718	-39.628	123.387	-7.22181	-54.2132	102.718	13.5498	-40.956	138.22	-27.0992	-24.8581	116.789	-20.3092	-42.8165	98.5277	4.79932	-32.5022	165.834	-17.5761	12.5555	167.592	-8.34042	46.8003	180.386	15.4119	21.7678	
94	0.783333	158.417	45.7844	31.08	146.96	60.501	6.26261	143.282	63.2315	-25.2303	133.531	45.8695	-45.703	161.516	19.1452	-41.8504	136.509	24.7669	-61.1487	112.086	38.4012	-47.7251	157.077	2.77389	-44.5764	127.642	9.62257	-61.5537	101.994	24.955	-41.5805	147.582	-15.2793	-39.6655	121.694	-8.70969	-53.2873	99.5135	10.7859	-37.7727	139.854	-25.0989	-21.9661	119.256	-18.6249	-42.6553	98.6571	6.64698	-31.2241	164.872	-16.7989	13.5924	166.753	-12.3113	41.7682	181.14	17.0442	26.0656	
95	0.791667	158.914	48.3997	28.4773	146.85	61.544	4.67684	142.059	62.0992	-27.0577	134.282	45.4554	-42.9197	163.623	22.4943	-40.6528	136.777	24.6613	-60.3918	111.982	37.3133	-46.2385	156.529	0.297595	-41.8612	129.553	9.18717	-62.0453	102.023	21.8471	-42.3083	149.502	-13.4368	-37.3771	123.527	-7.42753	-53.5973	101.033	11.3926	-36.6253	140.925	-26.0611	-23.9006	117.161	-18.7487	-41.9446	100.393	2.70715	-30.2304	168.516	-14.6051	14.2079	168.961	-11.7644	43.0995	179.218	13.9089	22.3331	
96	0.8	159.269	48.9823	27.3407	145.414	55.2282	1.93432	140.732	60.154	-22.8453	133.311	46.6936	-45.3081	162.764	23.711	-42.5545	138.936	27.6236	-61.1995	109.793	33.1107	-44.4929	155.616	4.44263	-47.5536	127.152	7.23307	-61.1576	102.873	22.8244	-43.2239	147.91	-15.7757	-36.606	119.45	-5.60931	-52.8252	103.032	15.5535	-34.782	140.162	-30.9561	-22.4254	119.778	-16.8073	-42.1483	99.7119	1.57775	-31.1313	168.108	-13.0215	15.2989	170.304	-9.07075	41.811	180.06	16.4649	25.9645	
97	0.808333	157.687	48.8431	26.9108	144.704	54.2687	3.3825	139.878	63.274	-22.7935	132.908	47.4758	-45.6461	161.521	20.8423	-41.798	135.967	26.3941	-58.8979	109.706	35.029	-41.759	155.796	5.2836	-48.0153	128.787	11.6927	-61.1455	102.037	24.3345	-38.0968	146.602	-14.8263	-40.8192	120.443	-8.79835	-52.3604	101.141	10.798	-31.9446	140.995	-27.255	-23.6047	115.463	-19.3529	-41.0585	99.196	3.63643	-25.6669	166.986	-16.1309	12.6409	170.971	-11.3202	41.2672	179.998	16.7313	23.1265	
98	0.816667	156.882	48.3719	29.6746	142.297	56.5791	5.19755	138.526	58.5343	-21.9353	132.679	50.7828	-48.6761	160.883	20.3415	-41.8263	134.755	24.6596	-58.2221	109.09	39.0514	-40.7866	154.729	2.85461	-46.9028	124.4	11.9519	-59.5577	103.674	25.2658	-38.0702	147.057	-15.4137	-37.4068	120.98	-7.20334	-51.7973	103.052	11.3865	-31.5091	139.057	-31.8445	-22.2034	118.178	-15.6485	-42.1846	103.146	4.16374	-25.291	167.718	-13.6534	14.4952	169.187	-12.4067	44.7852	179.823	17.2831	21.0125	
99	0.825	157.66	47.126	26.6724	141.166	52.893	2.9171	137.661	57.7085	-26.2505	132.484	52.8979	-51.0781	160.964	23.8345	-42.6651	136.369	28.5334	-58.8333	109.019	37.9809	-37.7765	154.89	6.02374	-47.367	126.105	11.9153	-58.0368	104.356	26.7888	-33.2049	145.456	-14.118	-39.7362	116.702	-5.77091	-49.3427	102.828	11.24	-25.4324	138.28	-31.7528	-25.8696	113.592	-19.4281	-39.6892	102.95	6.35369	-23.7212	166.303	-16.3592	11.5088	168.807	-14.9094	43.6969	178.703	15.8982	22.4634	
100	0.833333	156.187	44.3811	26.1477	140.306	53.963	1.01275	134.525	58.3121	-24.2489	131.502	49.4555	-49.8152	158.773	20.2268	-43.2047	131.182	29.2215	-57.819	109.021	35.3804	-37.4831	151.93	2.73443	-45.4109	121.564	10.8549	-55.0866	104.774	24.8242	-28.7462	144.552	-15.8231	-38.1653	115.956	-3.14901	-48.1731	106.138	14.8534	-18.4992	138.243	-30.1028	-23.5146	116.586	-18.5013	-40.2226	103.266	4.28813	-19.2792	167.234	-14.4922	12.739	167.891	-15.3785	42.4407	180.335	13.4079	21.9978	
101	0.841667	156.356	45.5948	21.7005	139.298	48.8601	-1.87775	134.826	57.501	-29.4581	129.89	55.1508	-48.9102	158.415	24.8084	-45.9389	131.34	31.3107	-56.4092	108.15	36.6457	-30.4455	150.126	2.36402	-46.9986	122.71	12.3668	-53.6185	106.848	27.0251	-21.0609	143.816	-12.4041	-39.7709	114.836	-1.75689	-44.7277	107.948	15.8323	-16.4432	138.134	-28.2214	-22.8087	114.157	-16.2634	-37.3381	105.035	6.47985	-16.6498	166.504	-16.6504	15.6049	167.431	-11.5314	43.7047	179.192	11.7152	21.7462	
102	0.85	155.384	42.4103	23.175	139.092	51.6185	-1.16977	134.173	58.0345	-29.7901	128.876	52.784	-48.0529	158.608	22.7793	-43.3477	130.076	29.4032	-54.4318	108.601	35.2814	-28.2989	150.753	1.75599	-44.7179	118.647	12.2311	-50.1238	107.975	24.1662	-14.4711	142.466	-14.8959	-36.9873	114.701	-1.44307	-43.4276	107.988	15.4434	-14.3993	136.695	-29.1038	-26.7333	112.839	-16.6003	-35.7959	106.201	4.82665	-13.4044	168.567	-17.0316	10.1772	168.214	-13.7258	44.9698	178.961	11.1182	22.5685	
103	0.858333	155.632	46.0229	24.093	139.421	50.8195	-1.13272	134.953	54.9924	-27.5529	130.882	52.0145	-53.9608	155.425	21.4725	-45.0553	126.733	32.9307	-51.0536	109.686	38.4827	-23.6691	148.964	0.578826	-43.6141	119.342	15.183	-47.9378	109.914	26.6737	-16.1866	142.035	-12.9897	-39.8953	114.61	-2.5987	-42.0102	108.547	13.0102	-12.4035	135.48	-31.0255	-27.6007	113.432	-16.1101	-36.0485	107.992	6.40579	-12.2122	168.537	-19.3512	11.6568	169.265	-12.3945	43.5702	180.783	15.6158	22.4791	
104	0.866667	154.427	41.8146	24.9531	140.465	54.1725	-3.42359	135.942	54.3151	-29.2804	131.303	51.3445	-50.6154	158.686	26.4648	-43.8497	126.495	34.8301	-50.4951	110.576	33.9231	-21.7528	150.111	6.30443	-46.6823	118.788	13.2693	-47.214	109.055	23.1615	-13.5386	142.393	-14.3343	-39.7308	114.802	1.35708	-41.8951	109.9	11.193	-9.32862	137.979	-30.6089	-25.8724	112.286	-15.4983	-33.9502	113.184	8.92704	-8.24276	170.181	-17.9434	14.5457	167.668	-13.1375	44.7357	177.655	12.1633	23.7434	
105	0.875	156.212	42.7653	23.392	140.27	53.7406	-2.87735	135.48	57.1117	-31.0619	131.588	51.4471	-53.4084	156.807	25.8668	-44.974	128.126	33.6754	-49.604	111.359	34.9594	-22.6758	149.456	4.74541	-44.955	120.556	12.783	-47.6872	109.802	24.0738	-12.6843	142.458	-11.4887	-41.6523	115.575	2.24358	-41.2466	110.168	13.6587	-12.7991	137.759	-29.7926	-26.6941	113.274	-11.2595	-32.9306	113.485	6.73494	-8.16594	169.768	-18.0557	11.2288	169.819	-11.6463	42.7851	179.076	14.8637	20.4431	
106	0.883333	156.992	46.665	23.9276	141.136	54.9177	-1.56423	136.345	56.5556	-30.3506	131.018	52.8648	-49.5831	155.999	22.5494	-43.7979	129.127	29.5965	-49.6889	111.312	33.6675	-19.6548	148.011	2.56697	-44.8224	117.819	13.3184	-45.9985	109.397	24.4673	-9.48193	143.598	-12.1401	-40.8826	116.642	-0.389628	-42.0959	111.213	14.211	-13.8886	137.101	-31.475	-24.444	110.73	-13.3334	-30.3464	110.741	3.58559	-6.07051	170.046	-22.5569	12.0059	168.455	-16.1667	44.4588	180.402	12.6638	20.1431	
107	0.891667	156.266	45.5514	24.856	140.296	49.5653	-1.94971	136.085	54.9908	-30.1444	131.172	55.5398	-51.7759	158.416	24.5039	-43.7607	127.752	35.1797	-49.159	112.488	36.0466	-17.1193	149.419	4.59066	-46.7045	120.324	15.0681	-47.6234	106.744	21.1777	-15.3798	143.739	-12.2634	-39.3259	112.621	-1.43038	-39.7661	111.17	13.9273	-12.9153	135.461	-30.9121	-27.1173	112.501	-15.6791	-33.6949	112.989	7.59271	-8.34935	168.425	-21.896	12.6575	169.875	-14.0462	41.0248	180.155	12.734	22.6813	
108	0.9	156.37	42.2374	25.4014	141.279	52.4161	-3.94866	135.564	59.9702	-29.0111	131.39	55.0565	-51.6487	159.264	23.0781	-42.5305	126.637	33.5122	-48.1275	112.645	37.5078	-18.1386	154.073	4.11896	-42.5353	120.725	10.595	-50.1332	107.132	24.4604	-18.9352	142.062	-13.0242	-41.2741	113.081	-2.17418	-41.4969	108.838	13.1903	-10.1945	134.814	-29.7592	-29.027	113.944	-14.9358	-34.815	109.95	7.36426	-8.29868	166.746	-21.9497	14.1725	170.273	-12.6818	41.6128	181.818	11.5041	22.7048	
109	0.908333	158.028	44.8411	24.6579	142.381	51.6934	-0.274705	136.75	57.6189	-30.416	132.308	54.3951	-52.1673	161.115	24.3899	-41.1471	131.515	32.8734	-50.207	111.543	37.1405	-19.2236	150.189	1.19721	-45.8184	123.51	14.9034	-51.2247	104.662	22.7541	-21.4303	141.789	-16.5405	-39.2653	115.034	-4.71466	-43.8316	107.559	13.126	-14.8252	137.824	-28.9455	-27.285	112.299	-14.0541	-34.4977	111.288	7.15756	-11.4655	167.162	-20.2833	14.259	168.772	-16.0126	43.2866	178.575	11.4314	24.5539	
110	0.916667	159.466	44.7972	21.5432	142.342	53.0944	-2.19287	138.077	61.1015	-27.2976	133.805	58.0051	-53.349	159.85	19.6883	-41.1469	128.884	31.3792	-48.9021	112.066	38.7903	-22.6819	154.719	3.84905	-43.6375	120.063	13.4729	-49.9575	104.174	24.5185	-20.6795	144.254	-16.2918	-37.0465	116.087	0.931061	-44.4674	108.406	14.3017	-19.256	137.614	-30.7213	-26.5957	115.734	-14.6584	-36.6792	106.9	6.68646	-11.8923	166.4	-21.1851	15.9649	166.593	-13.4433	45.9407	181.264	10.9294	22.3357	
111	0.925	157.902	42.0453	22.9571	142.43	52.0437	-0.159865	139.043	61.1416	-25.3142	134.464	57.6835	-50.05	159.521	21.5872	-42.7137	129.154	32.6283	-50.1506	112.831	39.2597	-22.8031	153.02	1.95112	-43.9461	124.208	14.4775	-52.5864	104.649	26.529	-19.4354	143.562	-16.7585	-38.255	117.915	-0.831323	-44.9818	108.25	15.1231	-16.2132	138.953	-29.1237	-23.7117	115.241	-16.2701	-36.7318	106.576	4.76158	-15.6843	169.198	-17.4107	11.5853	167.237	-16.2409	43.8376	181.435	12.6915	26.0837	
